<svg id="Layer_1" enable-background="new 0 0 512 512" height="512" viewBox="0 0 512 512" width="512" xmlns="http://www.w3.org/2000/svg"><g><g><path d="m469.283 165.426c12.658-14.923 17.85-28.783 16.513-43.229-1.748-18.894-14.458-36.353-30.55-58.456-6.681-9.178-14.254-19.58-21.858-31.221-13.953-21.359-30.319-32.299-48.645-32.516-.182-.003-.356-.004-.537-.004-25.144 0-45.549 20.935-54.079 31.255-9.415-2.157-18.605-3.809-27.919-5.022-5.483-.717-10.495 3.148-11.208 8.625-.714 5.477 3.147 10.494 8.624 11.208 10.635 1.385 21.114 3.388 32.036 6.124 4.053 1.015 8.304-.595 10.67-4.035.194-.283 19.975-28.155 41.87-28.155.101 0 .205.001.306.002 11.245.133 22.058 8.025 32.138 23.456 7.882 12.065 15.612 22.685 22.434 32.054 13.858 19.036 24.889 34.19 26.666 47.328-10.868-18.351-30.635-34.702-44.794-46.411-2.431-2.009-4.687-3.875-6.685-5.576-10.188-8.681-22.19-11.457-33.791-7.814-8.445 2.65-16.136 8.649-22.224 16.945-1.935-3.33-5.711-5.381-9.782-4.919-5.487.627-9.428 5.583-8.801 11.07 1.079 9.444 5.399 18.66 9.975 28.417 12.063 25.728 18.019 42.433-10.309 60.869-2.729 1.776-4.521 4.691-4.638 7.944-.116 3.235 1.242 6.249 3.809 8.217 1.731 1.493 27.132 24.781-11.184 73.192-53.687 67.834-54.308 205.813-54.308 207.198 0 18.482-8.404 20.029-17.012 20.029-8.607 0-17.012-1.546-17.012-20.029 0-1.386-.621-139.364-54.308-207.198-38.314-48.411-12.915-71.699-11.184-73.192 2.566-1.968 3.925-4.982 3.809-8.217-.117-3.253-1.909-6.168-4.638-7.944-28.327-18.436-22.371-35.14-10.308-60.868 4.574-9.757 8.896-18.973 9.975-28.417.627-5.487-3.313-10.443-8.801-11.07-4.065-.467-7.845 1.588-9.782 4.921-6.088-8.297-13.78-14.296-22.225-16.946-11.602-3.642-23.603-.866-33.791 7.814-1.998 1.702-4.255 3.567-6.685 5.576-14.158 11.708-33.927 28.06-44.794 46.412 1.777-13.138 12.808-28.293 26.666-47.329 6.821-9.369 14.552-19.989 22.434-32.053 10.066-15.41 20.863-23.301 32.091-23.456.113-.001.226-.002.339-.002 18.339 0 36.438 20.298 41.884 28.154 2.366 3.44 6.619 5.051 10.67 4.035 10.92-2.735 21.396-4.738 32.029-6.124 5.477-.713 9.338-5.731 8.624-11.208s-5.73-9.337-11.208-8.624c-9.312 1.213-18.499 2.865-27.912 5.021-8.53-10.323-28.933-31.257-54.079-31.257-.179 0-.358.001-.537.003-18.325.218-34.692 11.158-48.645 32.517-7.604 11.641-15.177 22.043-21.858 31.22-16.091 22.104-28.801 39.563-30.55 58.456-1.338 14.469 3.872 28.35 16.572 43.299.173.222.351.437.541.642 5.134 5.955 11.454 12.082 19.022 18.486 29.052 24.583 54.142 83.48 59.085 109.44-8.931 18.364-17.173 39.09-21.078 60.332-8.721 47.433 6.124 85.554 44.12 113.306 4.949 3.615 10.188 5.435 15.033 5.435 4.366 0 8.411-1.479 11.629-4.457 5.006-4.632 8.303-14.17 1.115-25.808-6.351-10.283-20.927-62.035 13.379-138.571 26.915 55.562 33.366 136.652 33.366 167.672 0 25.812 13.145 40.028 37.012 40.028s37.012-14.216 37.012-40.029c0-31.019 6.451-112.109 33.366-167.671 34.308 76.538 19.729 128.289 13.378 138.571-7.187 11.637-3.89 21.176 1.116 25.808 3.218 2.977 7.263 4.457 11.629 4.457 4.844 0 10.084-1.82 15.033-5.434 37.996-27.752 52.841-65.874 44.12-113.307-3.906-21.242-12.148-41.968-21.078-60.332 4.942-25.969 30.016-84.842 59.085-109.44 7.519-6.362 13.804-12.451 18.919-18.368.249-.262.481-.539.703-.829zm-394.024 3.929c-6.7-5.669-11.906-10.739-15.95-15.298-6.744-19.845 26.465-47.311 44.488-62.215 2.512-2.077 4.844-4.006 6.908-5.765 4.971-4.234 9.821-5.529 14.834-3.956 7.845 2.462 15.069 11.484 18.966 23.398-.085.181-.168.36-.253.541-5.728 12.215-12.219 26.06-11.975 40.829.245 14.74 6.931 27.453 20.371 38.622-2.92 4.405-5.891 10.34-7.617 17.843-2.922 12.701-1.586 26.193 3.957 40.347-1.948 3.548-4.262 7.576-6.832 12.047-2.239 3.895-4.664 8.116-7.184 12.61-10.772-31.77-32.726-76.166-59.713-99.003zm68.448 225.639c-.277 26.022 4.961 44.595 9.268 54.073-29.231-22.848-40.015-52.676-32.958-91.056 6.382-34.718 26.3-69.368 39.479-92.297.183-.318.359-.625.539-.939 2.666 4.091 5.653 8.229 8.963 12.41 1.538 1.943 3.026 3.972 4.475 6.063-19.373 38.701-29.389 76.27-29.766 111.746zm215.318 54.072c4.306-9.477 9.545-28.048 9.269-54.066-.377-35.478-10.392-73.048-29.767-111.751 1.449-2.091 2.937-4.12 4.476-6.063 3.309-4.181 6.296-8.318 8.962-12.409.18.313.355.619.538.937 13.181 22.929 33.098 57.58 39.48 92.298 7.057 38.379-3.726 68.207-32.958 91.054zm77.716-279.711c-27.001 22.849-48.947 67.229-59.715 98.998-2.52-4.493-4.945-8.713-7.183-12.608-2.569-4.47-4.882-8.497-6.831-12.044 5.543-14.154 6.879-27.646 3.957-40.348-1.727-7.502-4.697-13.438-7.617-17.842 13.44-11.169 20.127-23.882 20.371-38.622.245-14.769-6.246-28.614-11.974-40.829-.085-.182-.169-.362-.254-.543 3.897-11.913 11.12-20.935 18.966-23.397 5.009-1.572 9.861-.278 14.834 3.957 2.064 1.759 4.396 3.688 6.907 5.765 18.025 14.905 51.232 42.37 44.488 62.217-4.044 4.559-9.25 9.628-15.949 15.296z"/><path d="m215.091 224.917c1.43 5.334 6.915 8.503 12.247 7.071 18.688-5.007 38.637-5.007 57.324 0 .867.232 1.737.343 2.594.343 4.416 0 8.456-2.947 9.653-7.414 1.43-5.335-1.736-10.818-7.071-12.248-22.063-5.912-45.613-5.912-67.676 0-5.335 1.43-8.501 6.913-7.071 12.248z"/><path d="m234.941 264.884c-5.334 1.429-8.501 6.913-7.071 12.247 1.428 5.334 6.905 8.502 12.247 7.072 10.357-2.774 21.408-2.774 31.766 0 .867.232 1.737.343 2.594.343 4.416 0 8.457-2.947 9.653-7.415 1.43-5.334-1.737-10.818-7.071-12.247-13.733-3.678-28.385-3.678-42.118 0z"/><path d="m195.246 151.646c-5.522 0-9.996 4.477-9.996 10s4.481 10 10.004 10 10-4.477 10-10-4.478-10-10-10z"/><path d="m326.754 161.646c0-5.523-4.478-10-10-10h-.008c-5.522 0-9.996 4.477-9.996 10s4.481 10 10.004 10 10-4.477 10-10z"/><path d="m256 43.489c5.522 0 10-4.477 10-10s-4.478-10-10-10h-.007c-5.522 0-9.996 4.477-9.996 10s4.48 10 10.003 10z"/></g></g></svg>