<svg id="Layer_1" enable-background="new 0 0 512 512" height="512" viewBox="0 0 512 512" width="512" xmlns="http://www.w3.org/2000/svg"><g><g><path d="m294.094 322.46c.454.062.904.091 1.35.091 4.929 0 9.22-3.645 9.897-8.664 1.972-14.619-4.893-28.093-17.49-34.325-10.242-5.067-22.025-4.271-31.851 1.729-9.827-6-21.609-6.795-31.852-1.729-12.597 6.232-19.461 19.706-17.488 34.325.738 5.474 5.774 9.31 11.248 8.573 5.473-.738 9.312-5.774 8.573-11.247-.831-6.158 1.613-11.289 6.538-13.726 5.189-2.563 11.136-1.247 15.907 3.529 1.875 1.878 4.421 2.934 7.075 2.934s5.2-1.056 7.076-2.934c4.771-4.776 10.719-6.095 15.906-3.529 4.925 2.437 7.369 7.567 6.539 13.726-.74 5.474 3.098 10.509 8.572 11.247z"/><path d="m298.136 176.503c-5.405 1.134-8.868 6.436-7.734 11.841s6.433 8.859 11.841 7.733c19.475-4.087 30.023-2.864 36.411 4.219 15.656 17.361 13.708 35.008-6.725 60.909-21.022 26.647-7.232 55.411 1.894 74.444 2.057 4.289 3.999 8.341 5.306 11.791 1.438 3.796 3.265 11.114 3.659 19.916-26.433-14.988-56.16-22.856-86.788-22.856s-60.355 7.868-86.789 22.856c.394-8.802 2.221-16.12 3.659-19.916 1.307-3.45 3.25-7.502 5.307-11.792 9.125-19.033 22.915-47.796 1.894-74.443-20.433-25.901-22.381-43.548-6.725-60.909 6.386-7.085 16.932-8.306 36.404-4.22 5.407 1.139 10.706-2.328 11.841-7.733 1.134-5.405-2.328-10.706-7.733-11.841-19.123-4.013-40.653-5.915-55.365 10.399-11.884 13.18-16.951 27.729-15.062 43.248 1.637 13.448 8.486 27.658 20.938 43.442 12.344 15.648 6.035 32.008-4.226 53.41-2.246 4.684-4.367 9.108-5.975 13.354-5.389 14.226-10.603 48.337 8.232 75.611 17.06 24.705 48.552 37.231 93.601 37.231s76.541-12.526 93.601-37.23c18.834-27.275 13.621-61.387 8.232-75.613-1.608-4.245-3.729-8.669-5.975-13.353-10.261-21.403-16.571-37.762-4.226-53.411 12.452-15.784 19.301-29.994 20.938-43.443 1.889-15.518-3.179-30.067-15.063-43.247-14.711-16.31-36.246-14.409-55.372-10.397zm-42.136 256.696c-38.085 0-64.041-9.621-77.144-28.596-3.379-4.894-5.683-10.109-7.203-15.344 25.222-16.196 54.291-24.759 84.347-24.759s59.125 8.563 84.346 24.759c-1.52 5.235-3.824 10.451-7.203 15.344-13.103 18.975-39.057 28.596-77.143 28.596z"/><path d="m434.679 268.508c12.9-8.339 21.321-25.32 21.321-44.615 0-12.802-3.726-24.954-10.492-34.218-7.348-10.062-17.831-15.832-28.758-15.832-4.685 0-9.276 1.05-13.579 3.043-5.955-18.115-10.961-36.662-13.87-57.284-7.125-50.496-20.644-80.963-43.836-98.784-22.483-17.278-52.025-20.818-89.465-20.818s-66.982 3.54-89.465 20.818c-23.192 17.821-36.711 48.288-43.836 98.784-2.91 20.622-7.915 39.17-13.87 57.285-4.302-1.993-8.893-3.044-13.579-3.044-10.928 0-21.41 5.771-28.758 15.832-6.766 9.264-10.492 21.417-10.492 34.219 0 19.241 8.432 36.255 21.323 44.607-1.337 4.755-2.611 9.602-3.804 14.558-8.078 33.553-9.647 64.701-4.665 92.579 4.609 25.79 14.791 48.823 30.263 68.462 33.496 42.517 92.144 67.9 156.883 67.9s123.387-25.383 156.883-67.9c15.472-19.638 25.653-42.672 30.263-68.462 4.982-27.878 3.413-59.026-4.665-92.579-1.192-4.955-2.466-9.799-3.802-14.551zm-17.929-74.664c10.435 0 19.25 13.761 19.25 30.05 0 9.424-3.02 18.194-7.703 23.803-4.099-12.434-8.479-24.341-12.785-36.033-1.936-5.258-3.851-10.464-5.723-15.66 1.95-1.245 4.288-2.16 6.961-2.16zm-340.75 30.05c0-16.289 8.815-30.05 19.25-30.05 2.672 0 5.01.914 6.961 2.161-1.872 5.196-3.787 10.402-5.723 15.661-4.304 11.688-8.682 23.591-12.781 36.02-4.683-5.618-7.707-14.395-7.707-23.792zm321.173 207.829c-29.736 37.744-82.511 60.277-141.173 60.277-58.663 0-111.438-22.533-141.173-60.277-28.729-36.467-36.085-84.909-21.864-143.982 5.999-24.918 14.282-47.411 22.292-69.163 10.9-29.601 22.172-60.208 27.247-96.18 13.023-92.296 46.169-102.398 113.498-102.398s100.475 10.102 113.497 102.397c5.075 35.971 16.347 66.578 27.247 96.178 8.011 21.753 16.294 44.246 22.293 69.165 14.221 59.073 6.865 107.516-21.864 143.983z"/><path d="m222.504 259.001c0-5.522-4.477-10-10-10h-.007c-5.523 0-9.997 4.478-9.997 10s4.481 10 10.004 10 10-4.478 10-10z"/><path d="m309.504 259.001c0-5.522-4.477-10-10-10h-.007c-5.523 0-9.997 4.478-9.997 10s4.481 10 10.004 10 10-4.478 10-10z"/><path d="m296.428 219.478c-26.365 7.063-54.492 7.062-80.856 0-5.336-1.429-10.818 1.736-12.247 7.071s1.736 10.818 7.071 12.247c14.87 3.984 30.213 6.004 45.604 6.004s30.734-2.02 45.604-6.004c5.335-1.429 8.501-6.912 7.071-12.247-1.429-5.335-6.912-8.5-12.247-7.071z"/><path d="m256 204.799c5.523 0 10-4.478 10-10s-4.477-10-10-10h-.008c-5.523 0-9.996 4.478-9.996 10s4.481 10 10.004 10z"/></g></g></svg>