<svg id="Layer_1" enable-background="new 0 0 511.965 511.965" height="512" viewBox="0 0 511.965 511.965" width="512" xmlns="http://www.w3.org/2000/svg"><g><g><path d="m460.798 49.033c-4.738-5.498-12.146-8.053-22.712-7.907-60.569 1.024-97.702 34.76-118.729 55.473-5.738-2.272-11.828-4.677-16.388-6.475 1.968-15.535 4.026-31.474 6.382-47.567 1.958-13.369-3.683-25.058-15.882-32.913-19.97-12.857-55.005-12.857-74.975 0-12.2 7.855-17.84 19.544-15.882 32.913 2.357 16.094 4.414 32.033 6.382 47.567-4.56 1.798-10.648 4.201-16.388 6.475-21.025-20.714-58.157-54.449-118.727-55.474-10.565-.156-17.973 2.408-22.711 7.907-6.344 7.361-5.55 17.375-4.401 24.268 3.335 20.005 13.994 57.585 47.954 89.236-1.565 20.447-5.62 96.047 16.152 134.309 17.788 31.261 37.71 69.534 33.845 88.184-4.39 21.182-8.075 61.237 16.573 91.518 19.13 23.502 50.99 35.419 94.693 35.419 43.704 0 75.563-11.917 94.694-35.419 24.648-30.282 20.963-70.337 16.572-91.518-3.865-18.649 16.057-56.923 33.845-88.184 21.771-38.262 17.717-113.861 16.151-134.309 33.96-31.651 44.619-69.231 47.955-89.236 1.147-6.891 1.941-16.905-4.403-24.267zm-231.475-22.574c4.448-2.864 10.316-4.775 16.66-5.746v24.248c0 5.522 4.477 10 10 10s10.001-4.478 10.001-10v-24.248c6.344.97 12.212 2.882 16.659 5.746 7.252 4.669 7.423 9.769 6.921 13.198-2.778 18.97-5.135 37.636-7.413 55.688-2.265 17.942-4.606 36.495-7.354 55.255-1.77 12.082-11.241 16.369-18.814 16.369s-17.044-4.287-18.813-16.369c-2.748-18.766-5.091-37.324-7.356-55.272-2.278-18.046-4.633-36.706-7.41-55.67-.504-3.43-.333-8.53 6.919-13.199zm-47.421 87.685 1.271 1.263c2.825 2.8 7.038 3.66 10.733 2.192 5.469-2.173 12.085-4.789 17.681-6.998 1.787 14.029 3.666 28.372 5.793 42.897 2.886 19.707 18.76 33.471 38.603 33.471s35.716-13.764 38.603-33.471c2.127-14.524 4.005-28.868 5.792-42.897 5.595 2.209 12.212 4.825 17.68 6.997 3.695 1.472 7.909.608 10.733-2.191l1.272-1.264c18.326-18.198 52.436-52.07 108.351-53.019-23.489 7.923-55.207 39.474-62.084 51.723-8.344 14.862 2.938 25.521 9.679 31.889 4.612 4.357 8.983 8.5 10.583 13.746-24.78-2.989-61.11-1.361-82.947 11.741-3.568 2.142-5.438 6.27-4.693 10.364.745 4.095 3.947 7.301 8.042 8.048.581.106 57.296 10.783 80.418 41.601-1.375 17.102-4.191 34.307-9.497 47.797-30.108-18.024-51.937-24.107-87.407-25.23-4.34-.122-8.228 2.511-9.708 6.563-1.481 4.054-.194 8.601 3.19 11.277.456.36 44.322 35.265 63.185 68.229-1.701 4.053-3.209 7.967-4.52 11.751-7.322-11.493-16.077-19.427-25.622-22.878-10.001-3.616-20.498-2.156-29.563 4.105-18.115 12.518-24.744 14.188-41.488 14.188s-23.374-1.67-41.488-14.188c-9.064-6.261-19.562-7.722-29.562-4.105-9.545 3.451-18.3 11.385-25.622 22.878-1.34-3.865-2.887-7.869-4.633-12.016 19.029-32.882 62.827-67.592 63.281-67.95 3.395-2.671 4.691-7.221 3.213-11.279-1.478-4.06-5.406-6.712-9.712-6.575-35.501 1.118-57.386 7.167-87.474 25.066-5.238-13.395-8.033-30.422-9.41-47.367 22.857-30.923 79.826-41.762 80.4-41.868 4.091-.749 7.291-3.952 8.037-8.043.746-4.092-1.119-8.218-4.683-10.361-21.848-13.145-58.238-14.747-82.965-11.723 1.594-5.257 5.971-9.406 10.59-13.77 6.741-6.368 18.022-17.026 9.679-31.889-6.928-12.341-38.587-43.808-62.098-51.724h.004c55.924.945 90.036 34.821 108.363 53.02zm216.65 88.82c-13.731-11.242-30.351-19.153-44.721-24.498 14.786-1.948 31.126-1.716 44.302.383.287 6.868.49 15.136.419 24.115zm-31.372 114.49c-10.925-15.539-25.079-30.335-36.989-41.633 16.506 3.204 30.713 9.25 48.523 20.015-4.178 7.515-8.041 14.721-11.534 21.618zm-111.197 132.142c-29.227 0-57.285 2.772-83.503 8.238-14.953-24.018-10.969-55.089-8.248-68.404 7.605-27.021 19.181-39.87 27.502-42.878 3.966-1.434 7.587-.875 11.391 1.752 20.627 14.253 31.001 17.733 52.858 17.733s32.231-3.48 52.857-17.733c3.807-2.628 7.426-3.186 11.392-1.752 8.322 3.01 19.897 15.857 27.503 42.878 2.72 13.314 6.705 44.385-8.249 68.403-26.219-5.465-54.275-8.237-83.503-8.237zm-122.818-153.915c17.784-10.681 32.002-16.683 48.525-19.869-11.91 11.252-26.056 25.974-37.006 41.443-3.491-6.884-7.348-14.075-11.519-21.574zm-19.335-116.8c13.174-2.131 29.563-2.375 44.387-.417-14.4 5.37-31.068 13.33-44.804 24.655-.073-9.024.13-17.336.417-24.238zm-45.11-98.276c4.672 1.857 12.047 5.932 22.357 14.229 12.965 10.433 24.17 22.556 27.117 27.805.185.329.276.554.319.681-.571 1.473-3.999 4.711-6.293 6.879-3.228 3.049-7.07 6.693-10.336 11.246-19.853-21.129-28.979-44.24-33.164-60.84zm120.074 394.495c21.324-3.65 43.842-5.504 67.188-5.504s45.864 1.854 67.188 5.504c-15.717 11.2-38.224 16.865-67.188 16.865-28.963 0-51.47-5.665-67.188-16.865zm221.287-333.656c-3.266-4.553-7.108-8.197-10.336-11.246-2.295-2.168-5.723-5.406-6.294-6.88.043-.127.135-.351.319-.68 2.947-5.249 14.152-17.372 27.117-27.805 10.306-8.293 17.684-12.371 22.357-14.23-4.183 16.6-13.31 39.713-33.163 60.841z"/><path d="m212.861 381.153c-2.766-4.779-8.885-6.41-13.664-3.646-4.78 2.767-6.412 8.885-3.646 13.665l10.304 17.802c1.854 3.202 5.212 4.992 8.664 4.992 1.7 0 3.423-.435 5-1.347 4.78-2.767 6.412-8.885 3.646-13.665z"/><path d="m312.768 377.507c-4.782-2.768-10.897-1.134-13.665 3.646l-10.304 17.802c-2.767 4.78-1.134 10.898 3.646 13.665 1.578.913 3.3 1.347 5 1.347 3.452 0 6.811-1.79 8.665-4.992l10.304-17.802c2.766-4.781 1.133-10.899-3.646-13.666z"/><path d="m196.182 224.473c0 5.522 4.481 10 10.004 10s10-4.478 10-10-4.477-10-10-10h-.007c-5.523 0-9.997 4.478-9.997 10z"/><path d="m305.786 234.473c5.522 0 10-4.478 10-10s-4.478-10-10-10h-.007c-5.522 0-9.997 4.478-9.997 10s4.481 10 10.004 10z"/><path d="m255.983 99.961c5.523 0 10.001-4.481 10.001-10.004s-4.478-10-10.001-10-10 4.478-10 10v.008c0 5.523 4.477 9.996 10 9.996z"/></g></g></svg>